<svg version="1.1" id="Layer_1" xmlns="http://www.w3.org/2000/svg" xmlns:xlink="http://www.w3.org/1999/xlink" x="0px" y="0px"
	 width="100%" viewBox="0 0 496 496" enable-background="new 0 0 496 496" xml:space="preserve">
<path fill="#000000" opacity="1.000000" stroke="none" 
	d="
M130.977844,293.950500 
	C126.902344,299.446289 122.500999,304.263916 119.386940,310.021423 
	C115.517899,317.174805 117.459373,320.785645 125.713188,321.656342 
	C127.009178,321.792999 128.404236,321.464966 129.543869,322.475922 
	C129.784500,324.140289 128.837234,325.142365 127.384460,325.150940 
	C114.628441,325.226379 101.871780,325.194580 88.994080,325.194580 
	C89.397743,321.499969 91.763397,321.769897 93.894989,321.672607 
	C98.544716,321.460297 102.779526,320.027588 106.166855,316.812988 
	C114.910873,308.514923 121.373230,298.408081 129.407120,287.916718 
	C119.927086,287.242310 111.809357,289.435272 102.935768,290.055389 
	C105.300377,285.470703 107.626785,282.356720 112.889229,282.610413 
	C118.372620,282.874786 123.882515,282.541870 129.374390,282.697174 
	C132.298920,282.779907 134.372238,281.888306 136.190277,279.503998 
	C154.164413,255.931381 172.225266,232.424911 190.261673,208.899796 
	C190.363022,208.767624 190.529251,208.649002 190.558334,208.502808 
	C192.490173,198.793732 201.213821,197.163315 208.310974,193.676025 
	C213.322830,191.213394 218.471252,189.028702 223.864471,186.581177 
	C224.125717,187.968033 224.339691,188.594711 224.348526,189.224274 
	C224.689514,213.530151 224.903946,237.838608 225.426971,262.140442 
	C225.532242,267.032196 223.881638,268.634644 219.131744,268.307648 
	C214.158188,267.965271 209.133224,268.025940 204.149551,268.279785 
	C199.975861,268.492371 198.688110,266.814636 198.649918,262.751923 
	C198.496536,246.438080 198.064651,230.126785 197.720322,213.814880 
	C197.689331,212.346283 197.547653,210.880035 196.253555,208.685135 
	C177.688416,232.921051 159.123260,257.156952 139.597473,282.646942 
	C149.015640,282.646942 156.932022,282.474426 164.832779,282.750061 
	C167.262833,282.834839 171.707672,280.813446 171.774338,284.871918 
	C171.841812,288.979889 167.367630,287.092682 164.928162,287.191193 
	C158.110275,287.466583 151.246475,287.667145 144.453354,287.173767 
	C138.500458,286.741364 134.056396,288.311371 130.977844,293.950500 
z"/>
<path fill="#000000" opacity="1.000000" stroke="none" 
	d="
M297.893433,268.108765 
	C293.071136,267.254669 295.927551,265.124725 296.962738,263.751068 
	C303.677368,254.840988 310.520782,246.028061 317.313538,237.176773 
	C324.207672,228.193298 331.094269,219.203995 337.977325,210.212021 
	C338.685547,209.286774 339.768890,208.404755 339.962769,207.368790 
	C341.362549,199.888168 347.590179,197.919357 353.330322,195.343887 
	C359.645203,192.510544 365.948425,189.651230 371.994202,186.921753 
	C373.481049,188.435318 373.309448,189.654892 373.285492,190.778076 
	C372.777557,214.593994 374.013275,238.384811 374.398041,262.186981 
	C374.477539,267.105682 372.827820,268.652466 368.094116,268.322357 
	C363.121613,267.975616 358.097626,268.049072 353.113159,268.290192 
	C349.034882,268.487457 347.623871,267.006348 347.590485,262.855133 
	C347.453979,245.876755 347.004700,228.900848 346.658966,211.924271 
	C346.636169,210.804810 346.516174,209.687317 346.393555,207.853470 
	C342.041748,211.690338 339.350189,216.052872 336.270172,220.031921 
	C325.058899,234.515610 314.017578,249.130753 302.878845,263.670837 
	C301.584106,265.360962 300.540161,267.376862 297.893433,268.108765 
z"/>
<path fill="#000000" opacity="1.000000" stroke="none" 
	d="
M207.105103,301.782288 
	C212.252975,301.784943 216.917740,301.906982 221.573105,301.749817 
	C224.901871,301.637421 226.386108,302.751099 226.390656,306.310394 
	C226.397324,311.535065 225.374115,317.950165 231.261154,320.423157 
	C238.036484,323.269318 245.367996,322.507355 251.949768,318.817993 
	C257.617096,315.641235 261.106750,310.201080 265.002472,305.238617 
	C267.768433,301.715271 267.724243,301.680573 272.083527,302.470093 
	C272.030334,305.556793 269.477478,307.351044 268.202393,309.765625 
	C264.363190,317.035583 266.213806,320.760895 274.317993,321.641968 
	C275.759766,321.798706 277.341858,321.357605 278.583740,322.605530 
	C278.424957,325.178955 276.521118,325.298370 274.654022,325.299072 
	C242.695007,325.310669 210.736008,325.304932 178.777023,325.273010 
	C178.016754,325.272247 177.256851,324.926453 176.492325,324.740540 
	C176.657364,321.539734 178.882004,321.813477 180.840103,321.686218 
	C193.870026,320.839447 197.494110,317.771545 199.633453,305.063049 
	C200.462006,300.141205 204.057907,302.349182 207.105103,301.782288 
z"/>
<path fill="#000000" opacity="1.000000" stroke="none" 
	d="
M352.999939,325.348633 
	C343.691925,325.291779 334.883942,325.239166 326.076172,325.158478 
	C325.789459,325.155884 325.505371,324.867645 325.079834,324.636292 
	C325.422089,321.264343 328.040527,321.807434 330.227295,321.684906 
	C335.106171,321.411407 339.871704,320.733795 343.585114,317.145935 
	C345.783081,315.022247 347.092804,312.369049 347.707794,309.338684 
	C349.240356,301.787170 349.271790,301.792999 357.162079,301.778503 
	C361.651154,301.770264 366.145111,301.890564 370.627686,301.716431 
	C374.116669,301.580872 375.525757,303.114807 375.284454,306.464569 
	C375.248718,306.960388 375.286102,307.461731 375.294373,307.960419 
	C375.471100,318.643463 376.323669,319.763458 386.592896,322.463745 
	C386.243134,325.445190 384.009308,325.330231 381.930725,325.334869 
	C372.453857,325.355988 362.976868,325.346802 352.999939,325.348633 
z"/>
<path fill="#000000" opacity="1.000000" stroke="none" 
	d="
M249.982635,285.224365 
	C251.967789,288.169128 251.179855,290.398956 248.725555,291.886414 
	C245.964783,293.559601 242.943588,293.654297 240.327469,291.525970 
	C238.775269,290.263153 239.438171,288.905884 240.880844,287.876221 
	C241.233826,287.937805 241.660233,287.880676 241.840149,288.064667 
	C243.089798,289.342468 244.049057,291.155212 246.329224,290.398773 
	C247.008163,290.173523 247.494797,289.616058 247.348389,288.880280 
	C246.939194,286.823822 245.024384,286.789337 243.546097,286.157043 
	C240.804672,284.984497 239.114639,283.053650 239.867065,279.922607 
	C240.621704,276.782349 243.480453,276.073059 245.807892,276.791107 
	C250.953568,278.378754 255.857361,276.232635 260.911865,276.548828 
	C266.086334,276.872498 271.530182,275.669067 274.013214,284.148132 
	C276.838745,276.875244 281.083740,275.330200 287.130981,277.378357 
	C286.176788,280.466492 286.350952,283.738190 286.315979,287.005585 
	C286.276703,290.672668 288.123535,291.600861 291.024994,289.904358 
	C292.521545,289.029358 293.640533,288.327881 295.514160,289.836090 
	C295.514160,285.421051 295.514160,281.482147 295.514160,277.632355 
	C302.697205,275.644470 305.481537,276.280060 306.689331,280.058502 
	C305.363220,281.041016 304.585968,279.790161 303.662842,279.275452 
	C302.444031,278.595886 301.246704,277.994690 300.047821,279.223267 
	C299.277679,280.012482 299.221954,281.074402 299.455750,282.042603 
	C299.887512,283.830505 301.268890,283.774933 302.633911,283.344482 
	C305.333069,282.493317 305.474304,283.849854 304.952545,285.947418 
	C303.312836,287.065643 301.016876,283.906372 299.702820,286.678650 
	C299.179474,287.782715 299.080261,289.081116 300.133392,289.897064 
	C302.747345,291.922333 304.686981,289.445435 307.081818,288.231689 
	C307.923798,290.978149 307.588501,292.436523 304.715240,292.434418 
	C297.579498,292.429169 290.443756,292.432648 283.163696,292.432648 
	C282.041443,287.810364 283.487122,283.426575 282.258026,279.257141 
	C277.580322,280.936249 275.401978,284.865265 275.331512,291.708374 
	C272.882263,292.649628 271.165131,292.636353 271.642303,289.156860 
	C272.102722,285.799774 269.830811,283.582397 268.278748,281.077057 
	C267.852264,280.388641 266.891907,279.419464 266.289948,280.057770 
	C264.067291,282.414551 262.962311,279.537872 261.223572,278.703125 
	C259.564362,283.133698 260.679199,287.283447 260.346436,291.314453 
	C256.667511,292.317291 256.674652,292.317352 256.708069,287.188751 
	C256.725098,284.578888 256.711060,281.968811 256.711060,278.782104 
	C252.506424,280.279541 248.968628,283.056824 245.551682,279.045715 
	C245.040390,278.445526 243.899597,278.707672 243.341019,279.480499 
	C242.592499,280.516144 243.079895,281.478210 243.997726,282.005768 
	C245.855362,283.073486 247.812988,283.967224 249.982635,285.224365 
z"/>
<path fill="#000000" opacity="1.000000" stroke="none" 
	d="
M232.898361,279.345459 
	C233.119339,280.711578 233.577377,282.021820 233.113617,282.636169 
	C230.629166,285.927277 231.593918,288.746155 234.409973,291.551300 
	C229.211487,293.858978 228.940109,287.924408 225.949921,287.151062 
	C223.517715,288.097321 225.066574,290.468170 223.561035,292.913635 
	C218.861343,289.027618 222.554733,283.477722 219.944992,278.922180 
	C219.360809,282.372925 218.854858,285.163910 218.422241,287.966187 
	C217.853973,291.647156 215.410187,293.140503 212.060318,292.844421 
	C208.608414,292.539307 206.761002,290.265625 206.684357,286.760925 
	C206.618927,283.769775 206.670807,280.776062 206.670807,277.432892 
	C208.922989,276.307251 210.501404,276.247864 210.313354,279.775848 
	C210.189484,282.100128 210.176147,284.437347 210.260223,286.763489 
	C210.333191,288.782135 211.187592,290.496613 213.462860,290.463379 
	C215.692459,290.430847 216.618103,288.721863 216.697464,286.721436 
	C216.815857,283.736694 216.728180,280.743774 216.728180,276.915192 
	C222.122574,277.399506 227.681503,274.695679 232.898361,279.345459 
M227.911896,278.877380 
	C225.858826,278.157349 224.691620,278.914795 224.449036,281.038177 
	C224.316299,282.200073 224.275055,283.439606 225.458038,284.149811 
	C226.788147,284.948364 228.147858,284.605682 229.064224,283.534607 
	C230.356308,282.024292 230.047821,280.486176 227.911896,278.877380 
z"/>
<path fill="#000000" opacity="1.000000" stroke="none" 
	d="
M366.223938,276.722534 
	C368.344879,276.695618 370.012177,276.626953 371.674316,276.691010 
	C377.770142,276.925720 379.691406,279.708160 376.726318,284.857819 
	C374.880371,288.063782 378.442413,289.191528 378.356354,291.716492 
	C374.109833,293.771393 373.823395,288.246124 371.218170,287.769653 
	C368.492706,288.073914 371.016785,294.311951 365.638580,291.481628 
	C365.638580,287.743774 365.638580,283.682404 365.638580,278.312195 
	C362.914825,281.428467 363.356445,283.944336 363.348206,286.252197 
	C363.334991,289.960327 361.865112,292.490814 358.007294,292.769409 
	C354.058716,293.054565 351.696381,290.950012 351.290161,287.001740 
	C351.035797,284.529724 351.086182,282.024323 351.043762,279.533142 
	C350.999573,276.937195 352.370880,276.413116 354.457214,277.110535 
	C354.457214,280.121704 354.213318,283.062500 354.539856,285.938507 
	C354.771271,287.976624 355.203918,290.686005 358.167969,290.406036 
	C360.710968,290.165833 361.612732,288.082855 361.618866,285.664490 
	C361.625610,283.006104 361.620392,280.347748 361.620392,277.633881 
	C362.736664,276.268280 364.354919,276.956818 366.223938,276.722534 
M369.530426,280.263397 
	C369.220734,282.582520 369.199310,284.784637 372.476105,284.533051 
	C374.394958,284.385681 375.030762,282.886841 374.521088,281.324829 
	C373.751373,278.966064 372.275482,277.626160 369.530426,280.263397 
z"/>
<path fill="#000000" opacity="1.000000" stroke="none" 
	d="
M394.722992,288.493683 
	C392.752960,289.320831 393.115601,292.359741 389.818848,292.313965 
	C387.070679,288.022156 385.759430,282.814636 383.743774,277.850128 
	C387.789368,275.527283 388.197845,277.656708 388.689240,280.519440 
	C389.068726,282.730194 389.674164,285.074890 391.644409,286.939819 
	C393.695343,284.969055 393.278931,282.843262 392.312164,280.667206 
	C390.812012,277.290558 392.356964,276.507141 395.736603,276.883331 
	C396.588531,280.299255 396.570801,284.058838 399.060669,286.896118 
	C402.530701,284.537567 400.665741,278.869019 405.305084,277.170593 
	C403.370697,282.495605 402.456146,288.256409 398.795563,292.660461 
	C396.155762,291.739594 396.137360,289.700714 394.722992,288.493683 
z"/>
<path fill="#000000" opacity="1.000000" stroke="none" 
	d="
M349.189453,281.988770 
	C350.543121,287.119110 348.775604,290.489655 344.335999,292.334167 
	C340.241943,294.035126 336.787201,292.574402 334.291718,289.239227 
	C331.761414,285.857544 332.388306,282.329346 335.008362,279.232056 
	C338.693420,274.875702 345.210175,276.032440 349.189453,281.988770 
M345.214447,282.625153 
	C343.792053,280.107849 342.265167,277.341003 338.799347,279.324646 
	C335.577148,281.168854 335.944763,284.137939 337.293030,287.113586 
	C338.425415,289.612701 340.149323,291.436951 343.028137,290.431030 
	C346.548859,289.200867 345.946411,286.154877 345.214447,282.625153 
z"/>
<path fill="#000000" opacity="1.000000" stroke="none" 
	d="
M204.814209,286.488403 
	C201.410507,292.873474 196.404572,294.694183 191.763916,291.415955 
	C188.798203,289.320953 187.392975,286.367523 188.364822,282.734711 
	C189.249130,279.429199 191.341385,277.191681 194.925568,276.760101 
	C198.712097,276.304199 201.896713,277.341431 203.815826,280.851654 
	C204.688675,282.448212 205.336624,284.198486 204.814209,286.488403 
M192.801468,287.719238 
	C194.695847,290.616547 197.098755,292.217926 199.983688,289.247162 
	C202.686676,286.463745 201.293945,283.386017 199.491364,280.701263 
	C198.338943,278.984894 196.500259,277.702118 194.428207,278.902557 
	C191.647675,280.513397 190.963455,283.112030 192.171616,286.139496 
	C192.293289,286.444427 192.379562,286.763489 192.801468,287.719238 
z"/>
<path fill="#000000" opacity="1.000000" stroke="none" 
	d="
M408.650757,288.500000 
	C410.811523,284.216644 411.220886,279.280823 416.073090,276.032471 
	C418.334717,281.577515 420.355896,286.532990 422.334442,291.383881 
	C418.510010,294.563629 417.495605,289.821411 415.036316,289.259857 
	C411.851807,288.532745 410.894897,292.353302 408.365570,292.243835 
	C407.007263,290.753998 408.206299,289.852234 408.650757,288.500000 
M415.362915,287.337646 
	C416.884003,285.197144 415.350311,283.860138 413.822571,281.464264 
	C413.434296,284.267883 409.601379,286.532288 415.362915,287.337646 
z"/>
<path fill="#000000" opacity="1.000000" stroke="none" 
	d="
M317.811066,279.522766 
	C317.247742,278.545929 316.516968,277.686218 317.499603,277.112335 
	C318.791168,276.358063 320.002441,276.865906 321.061707,277.893402 
	C322.440186,279.230591 322.620270,281.623749 324.717407,282.210632 
	C327.810974,281.655762 326.654633,276.131134 331.332062,277.066742 
	C329.819489,281.681030 325.047943,284.678284 326.034393,290.087433 
	C326.520966,292.755615 324.480225,292.365509 322.366699,291.740204 
	C323.499207,286.872589 320.543182,283.415771 317.811066,279.522766 
z"/>
<path fill="#000000" opacity="1.000000" stroke="none" 
	d="
M183.546585,277.608795 
	C185.541702,276.686188 187.186234,276.543182 185.694092,279.094727 
	C183.546494,282.767029 180.687271,285.949524 181.183380,290.801880 
	C181.394775,292.869476 179.213074,292.260254 177.404922,291.709106 
	C179.024796,285.878998 174.129288,282.280243 172.111908,277.446075 
	C177.225937,275.429169 177.042953,281.086121 180.041687,282.198914 
	C182.218262,281.761292 182.395248,279.503265 183.546585,277.608795 
z"/>
<path fill="#000000" opacity="1.000000" stroke="none" 
	d="
M424.129944,278.384705 
	C425.833374,275.286804 427.199463,277.073883 428.520203,278.563843 
	C429.594788,279.776093 430.020020,281.540955 431.531433,282.228638 
	C435.163025,282.389435 433.438019,275.784058 438.447540,277.205872 
	C436.150269,282.044678 431.394531,285.736115 433.221313,291.483002 
	C431.736237,292.567017 430.507263,292.480835 428.941772,291.733185 
	C430.925446,286.187378 426.978424,282.668182 424.129944,278.384705 
z"/>
</svg>